PathFileType	4	(X/Y/Z)
DataRate	CameraRate	NumFrames	NumMarkers	Units	OrigDataRate	OrigDataStartFrame	OrigNumFrames	
  100.0	  100.0	    6	     56	     mm	  100.0	      40	    317
Frame#	Time	LASI			RASI			LPSI			RPSI			RTH1			RTH2			RTH3			RLFC			RMFC			LTH1			LTH2			LTH3			LLFC			LMFC			RTB1			RTB2			RTB3			RLMAL			RMMAL			LTB1			LTB2			LTB3			LMMAL			LLMAL			RCAL			RTOE			RMT5			LCAL			LTOE			LMT5			LACR			RACR			CLAV			C7			LASH			LPSH			RASH			RPSH			RUA1			RUA2			RUA3			RLEL			RMEL			LUA1			LUA2			LUA3			LLEL			LMEL			RFAsuperior			RFAradius			RFAulna			LFAsuperior			LFAradius			LFAulna			RHJC			LHJC			
		X1	Y1	Z1	X2	Y2	Z2	X3	Y3	Z3	X4	Y4	Z4	X5	Y5	Z5	X6	Y6	Z6	X7	Y7	Z7	X8	Y8	Z8	X9	Y9	Z9	X10	Y10	Z10	X11	Y11	Z11	X12	Y12	Z12	X13	Y13	Z13	X14	Y14	Z14	X15	Y15	Z15	X16	Y16	Z16	X17	Y17	Z17	X18	Y18	Z18	X19	Y19	Z19	X20	Y20	Z20	X21	Y21	Z21	X22	Y22	Z22	X23	Y23	Z23	X24	Y24	Z24	X25	Y25	Z25	X26	Y26	Z26	X27	Y27	Z27	X28	Y28	Z28	X29	Y29	Z29	X30	Y30	Z30	X31	Y31	Z31	X32	Y32	Z32	X33	Y33	Z33	X34	Y34	Z34	X35	Y35	Z35	X36	Y36	Z36	X37	Y37	Z37	X38	Y38	Z38	X39	Y39	Z39	X40	Y40	Z40	X41	Y41	Z41	X42	Y42	Z42	X43	Y43	Z43	X44	Y44	Z44	X45	Y45	Z45	X46	Y46	Z46	X47	Y47	Z47	X48	Y48	Z48	X49	Y49	Z49	X50	Y50	Z50	X51	Y51	Z51	X52	Y52	Z52	X53	Y53	Z53	X54	Y54	Z54	X55	Y55	Z55	X56	Y56	Z56	

112	1.12000	766.19191	1032.90809	-419.93314	507.56359	1035.45292	-440.75653	698.56939	1086.01371	-596.55684	604.43676	1084.46185	-607.83094	438.65978	872.25149	-506.23986	429.84346	772.18656	-475.47805	433.67053	637.87248	-547.23731	427.85056	520.38417	-526.34798	545.43397	512.97216	-498.37753	838.05288	897.03281	-516.12437	846.97936	768.14570	-463.39532	844.24428	652.71059	-547.87841	849.22042	492.40644	-550.33281	734.33915	474.45742	-528.41078	450.61051	369.26513	-494.29348	401.55298	276.41632	-553.88637	447.81724	194.03701	-521.05412	399.29804	121.88180	-578.90539	486.29263	128.51788	-541.88257	828.65252	364.69534	-510.83022	870.48702	313.01877	-559.16120	835.17286	226.67768	-528.72584	789.04519	133.73596	-542.64427	874.18326	127.17759	-578.94102	454.56040	103.36074	-642.61230	422.88940	78.98120	-408.36901	351.92098	59.05161	-437.54691	803.18141	103.40052	-640.31034	860.87721	77.43894	-403.26199	934.45559	58.78812	-454.93016	787.73776	1573.42675	-532.85828	479.02586	1558.14816	-563.61523	594.52906	1510.96515	-476.02328	636.64698	1577.61980	-592.72911	759.24267	1525.52523	-456.28335	821.61684	1503.50816	-592.10430	506.55718	1513.69599	-491.41007	455.67990	1505.29196	-619.56453	346.27731	1524.44889	-548.71939	321.97970	1473.66121	-576.25433	265.57497	1499.15183	-526.04175	184.93309	1491.38919	-498.33186	205.41772	1402.62286	-495.24595	909.60429	1522.02379	-522.17237	943.24074	1440.83032	-531.81140	1007.46280	1475.00151	-471.79336	1072.59764	1455.87265	-442.83839	1040.48558	1370.58872	-432.00560	194.53113	1508.76980	-407.94340	195.52668	1488.81103	-224.62527	128.24226	1506.32262	-244.76495	1077.16321	1476.55506	-354.35392	1040.63798	1462.96973	-171.42149	1112.28202	1467.64743	-175.44306	547.27907	946.77021	-518.97206	748.94833	934.65291	-502.51433	
113	1.13000	766.26680	1032.92008	-419.91679	507.63734	1035.46150	-440.72444	698.57027	1086.01706	-596.53268	604.43239	1084.46294	-607.79523	438.70029	872.26839	-506.18867	429.89184	772.18603	-475.45232	433.65590	637.87897	-547.20082	427.84509	520.38784	-526.37526	545.46570	512.96578	-498.37959	838.07411	897.02086	-516.13568	846.99689	768.14166	-463.39415	844.23157	652.69279	-547.83817	849.22463	492.40169	-550.32389	734.36723	474.45400	-528.42453	450.63067	369.26927	-494.28082	401.56423	276.43200	-553.86951	447.82239	194.03860	-521.03939	399.29742	121.88748	-578.90126	486.28291	128.52065	-541.87146	828.67011	364.69432	-510.84084	870.48517	313.00970	-559.16661	835.18238	226.66865	-528.71854	789.04819	133.73263	-542.64796	874.18095	127.17338	-578.94453	454.53669	103.36579	-642.59149	422.89521	78.98351	-408.37201	351.91501	59.05717	-437.54207	803.19296	103.40250	-640.31794	860.86950	77.43697	-403.24767	934.44791	58.79208	-454.94567	787.74422	1573.45013	-532.94193	479.00880	1558.12378	-563.66338	594.56833	1510.99402	-476.07115	636.61983	1577.62821	-592.76819	759.27670	1525.58076	-456.32445	821.60740	1503.54765	-592.15525	506.54278	1513.71736	-491.39548	455.64214	1505.27906	-619.53513	346.29426	1524.45952	-548.69309	321.96424	1473.64094	-576.19660	265.56933	1499.10768	-526.00560	184.96667	1491.29145	-498.31732	205.43429	1402.55507	-495.19947	909.64449	1522.03573	-522.30492	943.25235	1440.86966	-531.85045	1007.46616	1475.04312	-471.84102	1072.60905	1455.92331	-442.90116	1040.50301	1370.63275	-432.09021	194.55344	1508.72726	-407.92602	195.56335	1488.77726	-224.58497	128.28825	1506.29641	-244.73983	1077.18493	1476.65162	-354.48175	1040.66110	1463.02177	-171.48131	1112.31610	1467.68833	-175.50537	547.32707	946.76613	-518.90441	749.00440	934.67195	-502.52751	
114	1.14000	766.32572	1032.89224	-419.95767	507.71299	1035.46087	-440.70319	698.59772	1086.01887	-596.52269	604.45412	1084.46387	-607.78098	438.73885	872.28217	-506.15893	429.95169	772.18866	-475.40945	433.70623	637.88051	-547.23076	427.84339	520.39937	-526.40763	545.50088	512.96730	-498.38686	838.10977	897.01123	-516.15067	847.03112	768.13693	-463.41198	844.24105	652.68193	-547.82856	849.24804	492.39477	-550.34326	734.39889	474.45564	-528.42826	450.64973	369.27382	-494.27445	401.58979	276.45710	-553.85644	447.82971	194.04307	-521.02441	399.29833	121.89714	-578.89816	486.27978	128.51908	-541.86204	828.69257	364.69424	-510.86944	870.49395	313.00280	-559.17905	835.19554	226.65782	-528.71611	789.05716	133.72870	-542.64100	874.18038	127.16721	-578.94780	454.52720	103.36991	-642.58511	422.90179	78.98492	-408.38212	351.91696	59.06071	-437.54199	803.21064	103.41009	-640.33161	860.88091	77.44772	-403.27323	934.44647	58.79449	-454.96078	787.75493	1573.47287	-533.03955	479.05707	1558.08998	-563.66143	594.59929	1511.02603	-476.11893	636.60828	1577.62672	-592.81866	759.30534	1525.63567	-456.37463	821.60491	1503.57646	-592.21767	506.54806	1513.74532	-491.39984	455.62160	1505.25040	-619.54053	346.32444	1524.45899	-548.65789	321.97398	1473.61401	-576.16978	265.57667	1499.06860	-525.97695	184.99042	1491.21827	-498.30746	205.45979	1402.50478	-495.13874	909.66659	1522.06977	-522.40137	943.27833	1440.89686	-531.92319	1007.48438	1475.08168	-471.90633	1072.63266	1455.95474	-442.99529	1040.51995	1370.67903	-432.15909	194.59345	1508.67679	-407.90119	195.59962	1488.74061	-224.53599	128.34876	1506.26260	-244.72577	1077.19871	1476.67085	-354.46239	1040.69174	1463.08756	-171.54102	1112.35079	1467.72792	-175.59431	547.36287	946.76931	-518.89559	749.04349	934.65567	-502.57364	
115	1.15000	766.38361	1032.86765	-419.99624	507.78522	1035.45618	-440.68942	698.65720	1086.01467	-596.54225	604.50715	1084.46036	-607.79057	438.78631	872.28466	-506.13410	430.01279	772.19205	-475.36300	433.82192	637.87479	-547.31996	427.84411	520.41233	-526.43922	545.53856	512.97024	-498.39330	838.16287	897.00725	-516.16961	847.08422	768.13294	-463.45008	844.27656	652.68330	-547.86170	849.29034	492.38893	-550.39171	734.43002	474.46170	-528.43323	450.66894	369.27608	-494.27306	401.62072	276.47802	-553.84879	447.84117	194.04543	-521.01676	399.30187	121.90453	-578.89430	486.28739	128.51627	-541.86094	828.71564	364.69501	-510.90433	870.51669	313.00048	-559.19745	835.20892	226.64670	-528.72290	789.06900	133.72430	-542.62825	874.18253	127.16161	-578.95129	454.54215	103.37819	-642.59976	422.89661	78.98270	-408.37693	351.92343	59.06146	-437.54382	803.21353	103.40886	-640.33053	860.89699	77.45695	-403.30658	934.45110	58.79948	-454.98264	787.75971	1573.49757	-533.13954	479.10911	1558.06425	-563.67087	594.61622	1511.04753	-476.15290	636.61064	1577.61634	-592.87796	759.33034	1525.68937	-456.42014	821.61077	1503.59755	-592.29417	506.55597	1513.78497	-491.40646	455.61933	1505.21015	-619.56226	346.33757	1524.42864	-548.64679	321.99707	1473.57082	-576.16463	265.59796	1499.02207	-525.95539	185.01750	1491.16702	-498.29902	205.50842	1402.46715	-495.10470	909.66333	1522.12831	-522.43748	943.31548	1440.92103	-532.02929	1007.51856	1475.11817	-471.99901	1072.66416	1455.97921	-443.10944	1040.54535	1370.72316	-432.21911	194.64491	1508.61893	-407.86159	195.64259	1488.70331	-224.48267	128.41701	1506.21815	-244.70591	1077.22210	1476.64994	-354.41540	1040.72974	1463.14681	-171.61429	1112.38908	1467.77747	-175.70111	547.41133	946.77027	-518.90743	749.09202	934.63428	-502.60335	
116	1.16000	766.44481	1032.86263	-420.01300	507.85303	1035.45100	-440.68114	698.74054	1086.00436	-596.58971	604.58477	1084.45094	-607.81333	438.84821	872.27422	-506.10510	430.06907	772.19456	-475.33360	433.96136	637.86484	-547.42026	427.84734	520.42013	-526.47641	545.57955	512.96793	-498.40506	838.23147	897.01147	-516.18972	847.15217	768.13241	-463.49963	844.33977	652.69718	-547.94741	849.34440	492.38668	-550.45333	734.45882	474.47050	-528.44980	450.69002	369.27528	-494.27657	401.64413	276.48364	-553.85706	447.85504	194.04353	-521.02075	399.30828	121.90594	-578.89299	486.30496	128.51476	-541.86984	828.73645	364.69675	-510.93069	870.54893	313.00165	-559.21767	835.21721	226.63813	-528.73217	789.07705	133.72241	-542.62681	874.18634	127.15861	-578.95355	454.58134	103.39520	-642.63581	422.87210	78.97630	-408.34491	351.93183	59.06001	-437.54438	803.20440	103.39877	-640.31780	860.90393	77.45530	-403.31433	934.45969	58.80488	-454.99892	787.75821	1573.51893	-533.23426	479.12504	1558.05073	-563.70949	594.62719	1511.06298	-476.17973	636.62261	1577.60096	-592.94668	759.35943	1525.74156	-456.45434	821.62389	1503.61425	-592.38097	506.55266	1513.82774	-491.39991	455.62729	1505.16565	-619.58587	346.32819	1524.37226	-548.66895	322.02787	1473.51106	-576.16986	265.62752	1498.96100	-525.94381	185.05043	1491.11111	-498.27264	205.58229	1402.41025	-495.13430	909.66639	1522.17423	-522.47836	943.36087	1440.94693	-532.15593	1007.56245	1475.15454	-472.11840	1072.69757	1456.01569	-443.22350	1040.58526	1370.76007	-432.29356	194.69401	1508.56095	-407.80224	195.68916	1488.66624	-224.42913	128.48441	1506.16548	-244.66760	1077.26477	1476.64111	-354.45076	1040.77676	1463.18898	-171.71290	1112.43314	1467.84277	-175.81004	547.47768	946.76632	-518.92044	749.15665	934.62091	-502.60268	
117	1.17000	766.50451	1032.86712	-420.02396	507.92028	1035.44577	-440.67365	698.83093	1085.99510	-596.64474	604.67025	1084.43845	-607.83076	438.92533	872.25445	-506.07662	430.12201	772.19522	-475.32794	434.07244	637.85532	-547.48616	427.85572	520.42034	-526.52643	545.62631	512.95801	-498.42946	838.31017	897.02515	-516.20689	847.22919	768.13694	-463.54976	844.42947	652.71777	-548.08413	849.40244	492.38739	-550.50862	734.48629	474.48125	-528.47277	450.71271	369.27262	-494.28704	401.65837	276.47607	-553.88480	447.86859	194.04079	-521.03363	399.31649	121.90355	-578.89775	486.32578	128.51263	-541.88207	828.75710	364.69888	-510.94787	870.58245	313.00301	-559.23685	835.22189	226.63672	-528.73959	789.07846	133.72779	-542.64404	874.19000	127.15704	-578.95399	454.62632	103.41289	-642.67658	422.84140	78.97012	-408.30674	351.94268	59.05724	-437.54431	803.20546	103.39340	-640.31953	860.90442	77.45088	-403.30185	934.46967	58.80063	-454.97979	787.76185	1573.53154	-533.32134	479.12388	1558.04116	-563.76676	594.64508	1511.08671	-476.21858	636.63906	1577.58274	-593.02487	759.39666	1525.79179	-456.48348	821.64029	1503.62756	-592.46945	506.53851	1513.86666	-491.36935	455.63742	1505.12253	-619.61000	346.32590	1524.31243	-548.69492	322.06368	1473.44000	-576.18117	265.65689	1498.89120	-525.94224	185.07863	1491.02559	-498.20666	205.66300	1402.31997	-495.19918	909.70252	1522.18139	-522.58700	943.41196	1440.97218	-532.29080	1007.60611	1475.19127	-472.25003	1072.73105	1456.06870	-443.32678	1040.63463	1370.79068	-432.39698	194.73370	1508.50348	-407.73270	195.73793	1488.62488	-224.38133	128.54513	1506.10804	-244.60894	1077.32064	1476.66966	-354.56923	1040.83869	1463.22393	-171.83539	1112.48330	1467.91968	-175.91171	547.55017	946.76161	-518.93327	749.22679	934.61243	-502.59014	
